<svg xmlns="http://www.w3.org/2000/svg">
  <symbol id="logo-red" viewBox="0 0 134 100" fill="none">
    <path d="M134 0H0v100h134V0Z" fill="#fff"/>
    <path d="M134 0H0v100h134V0Z" fill="#EF533F"/>
    <path fill-rule="evenodd" clip-rule="evenodd" d="m74.3 41.37.28-.21C78.6 38.5 80.52 34.83 80 30a11.61 11.61 0 0 0-4.37-8.14c-2.92-2.33-6.34-3.24-10.02-3.31-3.4-.07-10.42 0-10.56.02v35.07h2.68v-32.7l7.17-.04c1.83.02 3.63.23 5.36.87 5.51 1.97 7.53 6.68 6.89 11.26-.43 3.1-2.23 5.34-4.94 6.9l-1.33.68 8.76 12.81c.07.1.19.24.29.24.92.02 1.85 0 2.87 0l-8.5-12.3ZM34.97 18.06 18.54 53.7c.78 0 1.47-.02 2.16 0 .4.03.6-.12.76-.47l13.43-29.56L48.4 53.22c.07.17.22.43.33.43.88.04 1.76.02 2.69.02l-16.45-35.6ZM115.86 53.1l-10.34-17.05c-.2-.3-.2-.54 0-.84l9.92-16.63c-.88 0-1.69.02-2.47 0-.36 0-.55.12-.71.4l-9.76 16.27c-.17.29-.17.47 0 .76l10.47 17.26c.1.16.26.4.38.4.92.05 1.83.02 2.82.02a6.46 6.46 0 0 0-.3-.59ZM98.92 35l-9.74-16.07c-.1-.16-.28-.37-.45-.37-.88-.05-1.78-.03-2.75-.03L95.9 34.9c.21.33.2.57 0 .9L85.5 53.14l-.3.54c.85 0 1.6-.02 2.37 0 .35.03.52-.12.71-.42L98.9 35.75c.2-.26.22-.47.03-.75Z" fill="#fff"/><path fill-rule="evenodd" clip-rule="evenodd" d="M67.04 39.58c.04-.05.07-.07.09-.07l.4-.1c2.47-.56 4.56-1.73 5.87-4a8.01 8.01 0 0 0-5.7-11.84c-1.26-.26-2.5-.33-3.75-.33l-3.42.07-.07.04v30.32h2.66V38.22l10.42 15.07c.1.14.28.38.43.38.92.02 1.82.02 2.85.02l-9.78-14.1Zm-3.92-1.8V25.7c2.42-.1 4.8-.15 6.67 1.64 1.85 1.74 2.09 3.95 1.45 6.26-.64 2.33-2.4 3.48-4.68 3.88-1.11.21-2.25.19-3.44.28ZM34.85 29.73 27.92 44.9h13.81l-6.88-15.17Zm-.1 6.09 3.04 6.7h-6.08l3.04-6.7ZM100.58 37.75l-9.69 15.94c.86 0 1.62-.02 2.38 0 .35 0 .54-.1.7-.4l6.47-10.8L107 53.33c.1.16.3.35.45.37.88.05 1.78.03 2.76.03l-9.64-15.97ZM107.41 18.53c-.38-.02-.57.12-.76.43l-5.7 9.47-5.76-9.45c-.1-.17-.26-.4-.38-.4-.93-.05-1.83-.02-2.85-.02l8.88 14.67 8.88-14.7c-.83.03-1.57.05-2.3 0ZM45.67 53.53l-2.73-5.98c-.07-.14-.3-.25-.47-.25H27.18c-.17 0-.43.16-.52.32l-2.76 6.05c.81 0 1.55-.02 2.26 0 .36.02.5-.12.64-.42l1.45-3.2c.14-.3.28-.43.64-.43h11.7c.38 0 .52.14.67.45l1.5 3.22c.06.14.23.33.35.33.85.03 1.7.03 2.56.03v-.12Z" fill="#fff"/><path d="M28.55 75.75h1.23c1 0 .44-.58 1.06-.58H31v1.55h-.22c-.6 0-.05-.6-1-.6h-1.24v2.12c0 .7.54.23.54.6V79H27v-.16c0-.37.54.1.54-.6v-4.39c0-.69-.54-.23-.54-.6v-.13h4.04c.2 0 .46-.03.66-.12v1.5h-.25c-.64 0-.05-1-1.45-1h-1.45v2.25ZM39 79v-.16c0-.37.52.1.52-.62v-4.44c0-.71-.52-.23-.52-.62V73h2v.16c0 .37-.52-.1-.52.62v4.44c0 .71.52.23.52.62V79h-2ZM43.44 78.22c0 .71.49.23.49.62V79H42v-.16c0-.37.51.1.51-.62v-4.44c0-.71-.49-.23-.49-.62V73h2.84c.67 0 1.9.3 1.9 1.44 0 1.01-.95 1.38-1.88 1.4v.02c.42.05.58.37.8.69l1.04 1.6c.5.76.78.28.78.67v.16h-1.35l-1.16-1.88c-.5-.85-.62-1.17-1.24-1.17h-.3v2.29Zm.89-2.6c.69 0 1.44-.17 1.44-1.1 0-.79-.6-1.13-1.18-1.13h-1.15v2.22h.89ZM50.05 75.75h1.23c1 0 .44-.58 1.08-.58h.18v1.55h-.23c-.59 0-.05-.6-1.03-.6h-1.23v2.12c0 .7.54.23.54.6V79H48.5v-.16c0-.37.54.1.54-.6v-4.39c0-.69-.54-.23-.54-.6v-.13h4.04c.2 0 .46-.03.66-.12v1.5h-.25c-.64 0-.05-1-1.45-1h-1.45v2.25ZM61.53 77.93c-.07.11-.24.3-.24.43 0 .32.53.14.53.43v.16H60v-.16c0-.31.24.1.81-.66l1.65-2.19-1.7-2.26c-.43-.57-.69-.18-.69-.52V73h2.18v.16c0 .3-.4.11-.4.36 0 .12.13.26.18.32l1.08 1.44.81-1.07c.1-.14.38-.48.38-.64 0-.36-.48-.07-.48-.39v-.16h1.85v.16c0 .37-.34-.04-1 .8l-1.3 1.67 1.94 2.62c.43.57.69.25.69.57V79h-2.27v-.16c0-.3.52-.1.52-.36 0-.1-.11-.23-.19-.3l-1.36-1.8-1.17 1.55ZM34.5 73.34h-.63V73h1.38c.04 0 2.12 5.2 2.12 5.2.34.75.63.27.63.66V79h-2v-.14c0-.32.47-.07.47-.39 0-.14-.05-.34-.12-.46l-.6-1.54-1.81-.02-.63 1.45c-.05.11-.16.34-.16.48 0 .37.45.11.45.46v.14H32v-.14c0-.35.32.07.72-.85l1.78-4.65Zm.39.74-.8 1.98h1.54l-.74-1.98ZM55.52 73.34h-.63V73h1.37c.04 0 2.11 5.2 2.11 5.2.34.75.63.27.63.66V79h-2v-.14c0-.32.47-.07.47-.39 0-.14-.04-.34-.11-.46l-.6-1.54-1.8-.02-.63 1.45c-.05.11-.16.34-.16.48 0 .37.45.11.45.46v.14H53v-.14c0-.35.31.07.72-.85l1.8-4.65Zm.38.74-.79 1.98h1.53l-.74-1.98ZM26.68 70.5c-.12 0-.21-.11-.21-.25s.1-.25.21-.25h39.43c.12 0 .21.11.21.25s-.1.25-.21.25H26.68ZM26.68 82c-.12 0-.21-.11-.21-.25s.1-.25.21-.25h39.43c.12 0 .21.11.21.25s-.1.25-.21.25H26.68ZM18.96 79H18l2.52-6h.96L24 79h-.94l-.64-1.55h-2.81L18.96 79Zm3.22-2.22-1.15-2.95-1.18 2.95h2.33ZM77 76.95c-.11.8-.56 2.05-2.34 2.05C73 79 72 77.9 72 76.1c0-3 2.17-3.1 2.63-3.1 1.77 0 2.21 1.06 2.3 1.9h-.73c-.05-.4-.3-1.28-1.57-1.28-1.38 0-1.83 1.2-1.83 2.44 0 1.3.72 2.3 1.88 2.3.9 0 1.54-.6 1.58-1.4H77ZM81 73c1.16 0 2.5.69 2.5 3 0 2.95-2.18 3-2.5 3-.34 0-2.5-.05-2.5-3 0-2 1.05-3 2.5-3Zm0 5.34c.36 0 1.74-.1 1.74-2.36 0-1.33-.54-2.36-1.74-2.36-1.6 0-1.74 1.74-1.74 2.36 0 .91.25 2.36 1.74 2.36ZM85.77 73.97V79H85v-6h1.17L88 77.94 89.83 73H91v6h-.77v-4.8l.02-.23h-.02L88.33 79h-.66l-1.9-5.03ZM95.52 73c1.26 0 2.08.48 2.08 1.72 0 1.13-.57 1.89-2.18 1.89h-1.6V79H93v-6h2.52Zm-1.68 2.92h1.51c.99 0 1.4-.41 1.4-1.2 0-.73-.46-1.05-1.4-1.05h-1.5v2.25ZM98.8 79H98l2.1-6h.8l2.1 6h-.8l-.54-1.56h-2.34L98.8 79Zm2.68-2.23-.96-2.97-.96 2.97h1.92ZM104.81 79H104v-6h.91l3.28 4.76V73h.81v6h-.91l-3.28-4.76V79ZM114.08 73h.92l-2.11 3.5V79h-.76v-2.5L110 73h.92l1.58 2.78 1.58-2.78Z" fill="#fff"/>
  </symbol>
  <symbol id="button-arrow" viewBox="0 0 13 9" fill="none"><path d="m7 .6 4 3.8-4 3.8M10 4.5H0" stroke-width="1.5"/></symbol>
  <symbol id="base-arrow" viewBox="0 0 16 12" fill="none"><path d="m8.85 1 5.06 4.78-5.06 4.77M12.65 5.92H0" stroke="#EF533F" stroke-width="2"/></symbol>
  <symbol id="arrow" viewBox="0 0 9 14" fill="none"><path d="m1 1 6 6-6 6" stroke="#3D3935" stroke-width="2"/></symbol>
  <symbol id="file" viewBox="0 0 48 48" fill="none"><path d="M29.5 4H10a2 2 0 0 0-2 2v35.5a2 2 0 0 0 2 2h27.5a2 2 0 0 0 2-2V14m-10-10 10 10m-10-10v8a2 2 0 0 0 2 2h8" stroke="#EF533F" stroke-width="3"/>/symbol>
</svg>
